Coordinates
version=1
nRows=14
nColumns=24
inDegrees=yes

Units are S.I. units (second, meters, Newtons, ...)
Angles are in degrees.

endheader
time	pelvis_tilt	pelvis_list	pelvis_rotation	pelvis_tx	pelvis_ty	pelvis_tz	hip_flexion_r	hip_adduction_r	hip_rotation_r	knee_angle_r	ankle_angle_r	subtalar_angle_r	mtp_angle_r	hip_flexion_l	hip_adduction_l	hip_rotation_l	knee_angle_l	ankle_angle_l	subtalar_angle_l	mtp_angle_l	lumbar_extension	lumbar_bending	lumbar_rotation
      4.22500000	     -4.39200698	     -6.40843675	      2.26062902	     -0.07113869	     -0.01651263	     -0.13714837	     11.91721935	     16.36031012	     11.08866257	    -18.84743104	      0.50455186	     -5.49852018	      9.04532478	     31.66739350	     -8.56090554	     -8.07559606	    -69.17279023	     -8.13764748	     -9.41428178	    -18.52724020	      4.58146131	      5.59733425	     -0.98379163
      4.23000000	     -4.38690416	     -6.19967609	      2.05046613	     -0.06497726	     -0.01587647	     -0.13673319	     11.12794825	     16.19700917	     11.49452328	    -18.42073201	      0.68833497	     -5.55283471	      8.90687310	     32.24324209	     -8.26457677	     -8.20439671	    -68.26845223	     -7.36761434	     -9.04695098	    -18.03922282	      4.54287099	      5.39715990	     -0.75252506
      4.23500000	     -4.37760657	     -6.00169207	      1.84874055	     -0.05885746	     -0.01528193	     -0.13635999	     10.34392631	     16.02683879	     11.88691627	    -17.99121227	      0.84714187	     -5.55839667	      8.82970726	     32.78721831	     -7.96637249	     -8.30844306	    -67.27973535	     -6.60868223	     -8.61099541	    -17.50812897	      4.49466421	      5.21385337	     -0.51891315
      4.24000000	     -4.38436331	     -5.80193717	      1.65577460	     -0.05276796	     -0.01476475	     -0.13599155	      9.59700607	     15.84106289	     12.21808635	    -17.57332020	      1.01055668	     -5.53577254	      8.82759730	     33.32039824	     -7.66697334	     -8.41586409	    -66.20979814	     -5.86006678	     -8.11965007	    -16.97311566	      4.46235685	      5.02977213	     -0.30268459
      4.24500000	     -4.39352763	     -5.60853706	      1.47200017	     -0.04671570	     -0.01430698	     -0.13566453	      8.86772386	     15.64893327	     12.51392962	    -17.16096079	      1.16127400	     -5.49222686	      8.88065071	     33.82757943	     -7.36637259	     -8.51189087	    -65.06016932	     -5.12740780	     -7.56903066	    -16.41728957	      4.42863280	      4.85618756	     -0.08711630
      4.25000000	     -4.41954908	     -5.41848020	      1.30345131	     -0.04069714	     -0.01393234	     -0.13536499	      8.17701025	     15.45038132	     12.75626734	    -16.76233437	      1.31006133	     -5.44649047	      8.97676950	     34.32718134	     -7.06312850	     -8.60269402	    -63.83524342	     -4.40881224	     -6.98559469	    -15.88766299	      4.41254628	      4.68245552	      0.10650819
      4.25500000	     -4.45533635	     -5.23253529	      1.14785278	     -0.03470241	     -0.01362445	     -0.13512242	      7.51571182	     15.24798704	     12.96157145	    -16.38191523	      1.45327301	     -5.41041367	      9.09968843	     34.80590100	     -6.75440406	     -8.68419520	    -62.53329652	     -3.70609414	     -6.35814380	    -15.39249921	      4.40667362	      4.52175125	      0.28554913
      4.26000000	     -4.50512925	     -5.05556316	      1.01050284	     -0.02876875	     -0.01340248	     -0.13490961	      6.89257961	     15.05123696	     13.12632962	    -16.02047644	      1.58661529	     -5.39120294	      9.22718708	     35.27816215	     -6.44642437	     -8.75536949	    -61.16459318	     -3.01946869	     -5.71624334	    -14.96372040	      4.41011192	      4.36559788	      0.44452619
      4.26500000	     -4.61132899	     -4.87023197	      0.90892370	     -0.02287277	     -0.01328599	     -0.13479110	      6.36860668	     14.84138648	     13.23649411	    -15.71663471	      1.73000874	     -5.40689551	      9.31679936	     35.78321057	     -6.08523466	     -8.77735405	    -59.71284480	     -2.39050673	     -5.11960881	    -14.68070056	      4.47072266	      4.19881680	      0.54131242
      4.27000000	     -4.62618027	     -4.73169210	      0.76920811	     -0.01694657	     -0.01316191	     -0.13462868	      5.71979958	     14.68371768	     13.36593564	    -15.36133303	      1.83683186	     -5.41473032	      9.45309301	     36.14896306	     -5.84234043	     -8.87248787	    -58.22604892	     -1.68319199	     -4.33410145	    -14.34744339	      4.43791753	      4.10333899	      0.74245237
      4.27500000	     -4.69329427	     -4.58157267	      0.66789323	     -0.01108102	     -0.01314082	     -0.13455299	      5.16381453	     14.51221964	     13.45152376	    -15.05824644	      1.94002170	     -5.48346507	      9.55600663	     36.54307429	     -5.54597480	     -8.93123225	    -56.65630573	     -1.05756807	     -3.63841746	    -14.14422394	      4.45378429	      3.98779369	      0.86304381
      4.28000000	     -4.75903202	     -4.44626012	      0.57293047	     -0.00524695	     -0.01317974	     -0.13450458	      4.62234532	     14.35849403	     13.51621932	    -14.77587875	      2.03209023	     -5.57484684	      9.64527763	     36.90218452	     -5.26388835	     -8.98332672	    -55.02761354	     -0.45343789	     -2.92768223	    -14.03674913	      4.46429874	      3.89123771	      0.99407070
      4.28500000	     -4.82685841	     -4.32266865	      0.48655431	      0.00056716	     -0.01328435	     -0.13449674	      4.09596700	     14.21769178	     13.56676285	    -14.51230539	      2.12236264	     -5.67905807	      9.71700995	     37.23009318	     -4.99760018	     -9.05183656	    -53.34407886	      0.13252596	     -2.21044932	    -14.02913600	      4.47245619	      3.81249403	      1.10688732
      4.29000000	     -4.90505270	     -4.21419686	      0.40691818	      0.00638214	     -0.01345650	     -0.13451093	      3.59217344	     14.09491374	     13.59320877	    -14.26811014	      2.21984521	     -5.78569894	      9.76534619	     37.53286815	     -4.74679388	     -9.12175912	    -51.60473106	      0.67191332	     -1.50939634	    -14.10825148	      4.50000240	      3.74633162	      1.20262354
